<svg xmlns="http://www.w3.org/2000/svg" viewBox="0 0 333333 199007" shape-rendering="geometricPrecision" text-rendering="geometricPrecision" image-rendering="optimizeQuality" fill-rule="evenodd" clip-rule="evenodd"><path fill="#006ece" d="M101242 33836h130849v131334H101242z"/><path d="M113077 90631l-2515-6118-2504 6118h5019zm118969 20995h-6710c-668 0-1117 28-1480 278-384 249-541 626-541 1110 0 576 327 975 811 1145 377 135 796 170 1416 178l1985 50c2006 58 3351 398 4177 1231 135 121 234 263 342 393v-4383zm0 10138c-905 1317-2640 1971-4994 1971h-7101v-3301h7072c697 0 1189-93 1487-384 249-228 441-569 441-996 1-448-192-811-448-1017-278-242-661-341-1295-349-3450-113-7755 107-7755-4759 0-2228 1416-4574 5264-4574h7329v-3059h-6809c-2056 0-3544 490-4604 1259v-1259h-10059c-1601 0-3486 406-4390 1259l7-1259h-17972v1259c-1430-1024-3835-1259-4958-1259h-11840v1259c-1138-1096-3643-1259-5180-1259h-13265l-3034 3294-2839-3294h-19818v21464h19445l3126-3336 2949 3336 11971 7v-5051h1187c1580 22 3465-35 5115-746v5791h9883v-5599h477c611 0 668 35 668 633v4966h30024c1899 0 3892-491 4995-1372v1372h9526c1985 0 3913-277 5393-988v-4006zm-14671-6147c726 748 1103 1686 1103 3259 0 3316-2070 4859-5770 4859h-7164v-3301h7136c704 0 1187-93 1500-384 249-228 435-569 435-996 0-448-192-811-456-1017-278-242-662-341-1302-349-3436-113-7741 107-7741-4759 0-2228 1401-4574 5251-4574h7370v3272h-6737c-675 0-1110 28-1480 278-398 249-547 626-547 1110 0 576 341 975 804 1145 384 135 797 170 1423 178l1986 50c1999 58 3358 398 4190 1231zm-33161-939c-484 285-1096 313-1807 313h-4469v-3451h4529c652 0 1313 14 1747 270 477 256 761 726 761 1388 0 655-284 1187-761 1480zm2220 1907c818 298 1487 838 1800 1294 519 755 604 1452 611 2811v3045h-3685v-1928c0-925 86-2291-598-3003-533-562-1352-690-2689-690h-3935v5620h-3685v-15381h8478c1868 0 3222 78 4426 732 1156 691 1881 1666 1881 3416 0 2447-1633 3698-2603 4084zm4645-8232h12272v3187h-8609v2789h8396v3138h-8396v3060l8609 13v3195h-12272v-15381zm-24788 7093h-4759v-3906h4795c1330 0 2248 534 2248 1885 0 1331-875 2021-2284 2021zm-8420 6894l-5635-6269 5635-6061v12330zm-14568-1814h-9035v-3060h8068v-3138h-8068v-2789h9210l4020 4475-4194 4511zm29213-7101c0 4261-3180 5152-6400 5152h-4585v5158h-7133l-4528-5087-4704 5087h-14553v-15381h14781l4518 5037 4674-5037h11739c2917 0 6189 811 6189 5072zm-4030-25222c-502 285-1098 314-1817 314h-4469v-3416h4526c648 0 1316 22 1754 265 473 234 765 710 765 1358 0 676-285 1210-758 1480zm31849 2427l-2547-6118-2519 6118h5066zm-59365 6631h-3764l-22-12024-5325 12024h-3222l-5354-12052v12052h-7474l-1406-3429h-7656l-1419 3429h-3995l6570-15375h5467l6247 14564V81886h6009l4802 10437 4422-10437h6118v15375zm15012 0h-12276V81886h12276v3215h-8594v2761h8385v3159l-8385-15v3074h8594v3180zm17314-11220c0 2433-1637 3713-2587 4091 804 313 1487 839 1807 1302 519 746 620 1451 620 2802v3024h-3707l-15-1936c0-909 93-2248-591-2980-537-548-1344-662-2671-662h-3953v5578h-3667V81885h8456c1867 0 3258 64 4446 748 1167 683 1861 1685 1861 3407zm5884 11220h-3750V81886h3750v15375zm43495 0h-5208l-6965-11526 7 11526h-7484l-1430-3429h-7648l-1373 3429h-4305c-1793 0-4055-398-5325-1693-1306-1317-1967-3074-1967-5876 0-2284 406-4362 1981-6006 1192-1231 3048-1800 5581-1800h3550v3294h-3471c-1341 0-2110 206-2843 918-615 648-1049 1871-1049 3486 0 1651 320 2824 1017 3608 556 604 1587 789 2555 789h1654l5176-12095h5507l6218 14543V81886h5607l6460 10708V81886h3756v15375zm-121387 3031h6282l1416-3429h3170l1408 3429h12358v-2618l1107 2625h6406l1100-2654v2646h30707l-15-5607h595c419 7 540 58 540 741v4867h15873v-1309c1281 691 3281 1309 5891 1309h6688l1430-3429h3173l1402 3429h12870v-3252l1950 3252h10309V78841h-10210v2540l-1423-2540h-10480v2540l-1309-2540h-14150c-2370 0-4462 327-6141 1252v-1252h-9754v1252c-1082-953-2540-1252-4155-1252h-35677l-2405 5542-2443-5542h-11239v2540l-1246-2540h-9579l-4450 10188v11263z" fill="#fff"/><path d="M31366 0h270600c8631 0 16474 3528 22156 9210 5683 5683 9211 13526 9211 22156v136275c0 8629-3529 16472-9211 22155-5683 5682-13526 9211-22155 9211H31367c-8629 0-16473-3528-22156-9211C3529 184114 1 176272 1 167641V31366c0-8631 3528-16474 9210-22156S22737 0 31368 0zm270600 10811H31366c-5647 0-10785 2315-14513 6043s-6043 8866-6043 14513v136275c0 5646 2315 10784 6043 14512 3729 3729 8867 6044 14513 6044h270600c5645 0 10783-2315 14512-6044 3728-3729 6044-8867 6044-14511V31368c0-5645-2315-10784-6043-14513-3728-3728-8867-6043-14513-6043z" fill="gray" fill-rule="nonzero"/></svg>